<svg width="54" height="61" viewBox="0 0 54 61" fill="none" xmlns="http://www.w3.org/2000/svg">
<g clip-path="url(#clip0_512_58)">
<path d="M27.3127 17.178C19.7455 17.178 13.6418 23.1891 13.6418 30.6416C13.6418 38.094 19.7455 44.1051 27.3127 44.1051C34.8798 44.1051 40.9836 38.094 40.9836 30.6416C40.9836 23.1891 34.8798 17.178 27.3127 17.178ZM27.3127 39.3947C22.4225 39.3947 18.4248 35.4692 18.4248 30.6416C18.4248 25.8139 22.4107 21.8885 27.3127 21.8885C32.2147 21.8885 36.2005 25.8139 36.2005 30.6416C36.2005 35.4692 32.2028 39.3947 27.3127 39.3947ZM44.7314 16.6273C44.7314 18.3732 43.3037 19.7676 41.5428 19.7676C39.77 19.7676 38.3541 18.3615 38.3541 16.6273C38.3541 14.8931 39.7818 13.4869 41.5428 13.4869C43.3037 13.4869 44.7314 14.8931 44.7314 16.6273ZM53.7859 19.8145C53.5836 15.6078 52.608 11.8816 49.4788 8.81159C46.3615 5.74157 42.5779 4.78072 38.3065 4.56981C33.9042 4.32374 20.7092 4.32374 16.3069 4.56981C12.0474 4.76901 8.26383 5.72985 5.13464 8.79988C2.00544 11.8699 1.0417 15.5961 0.827531 19.8027C0.577672 24.1383 0.577672 37.1331 0.827531 41.4687C1.0298 45.6753 2.00544 49.4015 5.13464 52.4716C8.26383 55.5416 12.0355 56.5024 16.3069 56.7133C20.7092 56.9594 33.9042 56.9594 38.3065 56.7133C42.5779 56.5141 46.3615 55.5533 49.4788 52.4716C52.5961 49.4015 53.5717 45.6753 53.7859 41.4687C54.0357 37.1331 54.0357 24.15 53.7859 19.8145ZM48.0986 46.1206C47.1706 48.4172 45.3739 50.1866 43.03 51.1123C39.5201 52.4833 31.1914 52.1669 27.3127 52.1669C23.4339 52.1669 15.0933 52.4715 11.5953 51.1123C9.26327 50.1983 7.46666 48.429 6.52671 46.1206C5.13464 42.6639 5.45588 34.4615 5.45588 30.6416C5.45588 26.8216 5.14653 18.6075 6.52671 15.1626C7.45476 12.8659 9.25137 11.0965 11.5953 10.1708C15.1052 8.79988 23.4339 9.11625 27.3127 9.11625C31.1914 9.11625 39.532 8.81159 43.03 10.1708C45.362 11.0848 47.1587 12.8542 48.0986 15.1626C49.4907 18.6193 49.1694 26.8216 49.1694 30.6416C49.1694 34.4615 49.4907 42.6756 48.0986 46.1206Z" fill="#290278"/>
</g>
<defs>
<clipPath id="clip0_512_58">
<rect width="53.3331" height="60.7177" fill="white" transform="translate(0.640137 0.282715)"/>
</clipPath>
</defs>
</svg>
