<svg width="51" height="58" viewBox="0 0 51 58" fill="none" xmlns="http://www.w3.org/2000/svg">
<g clip-path="url(#clip0_512_46)">
<g clip-path="url(#clip1_512_46)">
<path fill-rule="evenodd" clip-rule="evenodd" d="M14.6601 51.0973V21.5211H4.8306V51.0972H14.6601V51.0973ZM9.74638 17.4844C13.173 17.4844 15.3076 15.2114 15.3076 12.3733C15.2428 9.47204 13.173 7.26318 9.81063 7.26318C6.44768 7.26327 4.24951 9.47212 4.24951 12.3733C4.24951 15.2115 6.38289 17.4845 9.68167 17.4845L9.74638 17.4844ZM20.1003 51.0973C20.1003 51.0973 20.2293 24.2961 20.1003 21.5211H29.9313V25.8103H29.8661C31.1588 23.792 33.4876 20.8266 38.7902 20.8266C45.2593 20.8266 50.1082 25.0538 50.1082 34.1385V51.0974H40.2788V35.2749C40.2788 31.2992 38.8566 28.5863 35.2983 28.5863C32.5833 28.5863 30.9652 30.4152 30.2546 32.1832C29.9946 32.8125 29.9313 33.6963 29.9313 34.5803V51.0973H20.1003Z" fill="#290278"/>
</g>
</g>
<defs>
<clipPath id="clip0_512_46">
<rect width="49.2306" height="56.6152" fill="white" transform="translate(0.922363 0.462402)"/>
</clipPath>
<clipPath id="clip1_512_46">
<rect width="45.9486" height="45.9486" fill="white" transform="translate(4.20459 6.20605)"/>
</clipPath>
</defs>
</svg>
