<svg width="40" height="40" viewBox="0 0 40 40" fill="none" xmlns="http://www.w3.org/2000/svg">
<path fill-rule="evenodd" clip-rule="evenodd" d="M12.6368 27.3676C20.3399 35.069 27.4779 35.9123 29.5735 35.9904C32.1058 36.0825 34.6901 34.0154 35.808 31.8983C34.025 29.8072 31.7031 28.1848 29.1608 26.4262C27.6602 27.9244 25.8111 30.7085 23.349 29.711C21.9486 29.1482 18.4907 27.5558 15.4696 24.5333C12.4465 21.5129 10.8558 18.0557 10.2889 16.6576C9.29119 14.192 12.0839 12.3392 13.5844 10.839C11.8255 8.25515 10.2308 5.87362 8.14325 4.1811C5.99562 5.30277 3.9161 7.86658 4.01026 10.4324C4.08839 12.5275 4.93182 19.6641 12.6368 27.3676ZM29.4252 39.9943C26.5403 39.8882 18.3645 38.7585 9.80205 30.1998C1.24158 21.639 0.113676 13.4669 0.00549328 10.5806C-0.154778 6.18207 3.21492 1.90973 7.1075 0.241247C7.57624 0.0388798 8.08956 -0.0381675 8.59708 0.0176654C9.10459 0.0734984 9.58887 0.260293 10.0024 0.55972C13.2238 2.90921 15.4456 6.4685 17.3548 9.25664C17.752 9.83641 17.9339 10.5367 17.8692 11.2365C17.8044 11.9362 17.497 12.5913 17.0002 13.0883L14.2836 15.8064C14.9147 17.1984 16.1989 19.598 18.3024 21.7011C20.406 23.8043 22.806 25.0882 24.2004 25.7191L26.915 23.0031C27.4141 22.5053 28.072 22.1984 28.7742 22.1358C29.4763 22.0732 30.1782 22.2589 30.7575 22.6606C33.6023 24.6315 36.9439 26.8207 39.3801 29.9394C39.7039 30.3558 39.9098 30.8515 39.9764 31.3748C40.043 31.898 39.9678 32.4296 39.7587 32.9138C38.0819 36.8256 33.8387 40.1566 29.4252 39.9943Z" fill="#410996"/>
</svg>
