    <svg width="60" height="60" viewBox="0 0 60 60" fill="none" xmlns="http://www.w3.org/2000/svg">
    <g clip-path="url(#clip0_512_53)">
    <path fill-rule="evenodd" clip-rule="evenodd" d="M23.9769 37.4599V20.8835C29.8616 23.6525 34.4192 26.3274 39.8095 29.2113C35.3637 31.6769 29.8616 34.4434 23.9769 37.4599ZM56.7721 12.6393C55.757 11.3019 54.0269 10.2609 52.185 9.9162C46.7711 8.88812 12.9962 8.8852 7.58523 9.9162C6.10818 10.1931 4.79292 10.8624 3.66307 11.9023C-1.09762 16.3209 0.394154 40.0167 1.54166 43.855C2.0242 45.5164 2.648 46.7146 3.4336 47.5012C4.44576 48.541 5.83158 49.257 7.42337 49.5781C11.881 50.5001 34.8458 51.0156 52.0908 49.7165C53.6797 49.4396 55.0861 48.7006 56.1953 47.6165C60.5971 43.2156 60.297 18.1891 56.7721 12.6393Z" fill="#290278"/>
    </g>
    <defs>
    <clipPath id="clip0_512_53">
    <rect width="59.0767" height="59.0767" fill="white" transform="translate(0.380371 0.282715)"/>
    </clipPath>
    </defs>
    </svg>
